<svg width="53" height="39" viewBox="0 0 53 39" fill="none" xmlns="http://www.w3.org/2000/svg">
<path d="M44.0938 3.30444C49.8331 11.7965 52.6675 21.3754 51.6079 32.4028C51.6035 32.4495 51.5794 32.4923 51.5412 32.5204C47.195 35.7321 42.984 37.6813 38.8321 38.9739C38.7998 38.9837 38.7652 38.9832 38.7332 38.9723C38.7012 38.9614 38.6734 38.9407 38.6536 38.9131C37.6944 37.57 36.8229 36.154 36.0594 34.6671C36.0155 34.5795 36.0555 34.474 36.1458 34.4395C37.5299 33.9147 38.8461 33.2856 40.1121 32.5409C40.2119 32.4821 40.2182 32.3382 40.1261 32.2692C39.8574 32.0685 39.5913 31.8575 39.3365 31.6465C39.2889 31.6075 39.2247 31.5999 39.1707 31.6261C30.9515 35.4457 21.9477 35.4457 13.6312 31.6261C13.5772 31.6018 13.5131 31.6101 13.4667 31.6485C13.2126 31.8594 12.9458 32.0685 12.6796 32.2692C12.5875 32.3382 12.5951 32.4821 12.6955 32.5409C13.9615 33.2716 15.2777 33.9147 16.66 34.4421C16.7496 34.4766 16.7921 34.5795 16.7477 34.6671C16.0006 36.156 15.1291 37.5719 14.1521 38.9151C14.1095 38.9694 14.0397 38.9943 13.9736 38.9739C9.84141 37.6813 5.63045 35.7321 1.28419 32.5204C1.24799 32.4923 1.22194 32.4475 1.21813 32.4009C0.332616 22.8623 2.13731 13.2042 8.72531 3.30253C8.74119 3.27632 8.76533 3.25586 8.79328 3.24371C12.0349 1.74654 15.5077 0.645074 19.1374 0.016031C19.2035 0.0058027 19.2695 0.0364877 19.3038 0.0953007C19.7523 0.89439 20.2649 1.91914 20.6118 2.75659C24.4378 2.16846 28.3235 2.16846 32.2295 2.75659C32.5764 1.93704 33.0712 0.89439 33.5178 0.0953007C33.5337 0.0661242 33.5584 0.0427496 33.5882 0.0285139C33.6181 0.0142783 33.6517 0.00990941 33.6842 0.016031C37.3158 0.646992 40.7887 1.74846 44.0277 3.24371C44.0563 3.25586 44.0798 3.27632 44.0938 3.30444ZM22.5569 21.4406C22.5969 18.6207 20.554 16.2874 17.9895 16.2874C15.4461 16.2874 13.4229 18.6003 13.4229 21.4406C13.4229 24.2802 15.4861 26.5931 17.9895 26.5931C20.5336 26.5931 22.5569 24.2802 22.5569 21.4406ZM39.4426 21.4406C39.4826 18.6207 37.4397 16.2874 34.8759 16.2874C32.3318 16.2874 30.3086 18.6003 30.3086 21.4406C30.3086 24.2802 32.3718 26.5931 34.8759 26.5931C37.4397 26.5931 39.4426 24.2802 39.4426 21.4406Z" fill="#5865F2"/>
</svg>
