<svg width="50" height="50" viewBox="0 0 50 50" fill="none" xmlns="http://www.w3.org/2000/svg">
<g clip-path="url(#clip0_30_102)">
<path fill-rule="evenodd" clip-rule="evenodd" d="M24.998 0.615723C11.1945 0.615723 0 11.8087 0 25.6169C0 36.6609 7.16271 46.0321 17.0971 49.3395C18.348 49.5683 18.8038 48.7962 18.8038 48.1332C18.8038 47.5392 18.782 45.9676 18.769 43.8819C11.815 45.3921 10.3478 40.5301 10.3478 40.5301C9.21056 37.6417 7.57143 36.8728 7.57143 36.8728C5.30153 35.3227 7.74328 35.3533 7.74328 35.3533C10.2526 35.5299 11.5725 37.9301 11.5725 37.9301C13.8025 41.7501 17.4245 40.6467 18.8487 40.0067C19.0758 38.3922 19.722 37.2902 20.4357 36.6655C14.8845 36.0332 9.04781 33.8892 9.04781 24.3093C9.04781 21.579 10.0224 19.3489 11.6216 17.6009C11.3636 16.9685 10.5058 14.4269 11.8674 10.9845C11.8674 10.9845 13.9654 10.3123 18.7415 13.5461C20.7352 12.992 22.8746 12.7157 25.0003 12.705C27.1243 12.7137 29.2622 12.9921 31.2589 13.5461C36.032 10.3123 38.1269 10.9845 38.1269 10.9845C39.4913 14.4269 38.6334 16.9685 38.3771 17.6009C39.9794 19.3489 40.9463 21.579 40.9463 24.3093C40.9463 33.9137 35.1004 36.027 29.5323 36.6455C30.4286 37.4175 31.2282 38.9431 31.2282 41.276C31.2282 44.6171 31.1978 47.3136 31.1978 48.1332C31.1978 48.8023 31.649 49.5805 32.9167 49.3364C42.8435 46.0229 50 36.6594 50 25.6169C50 11.8087 38.8055 0.615723 24.9974 0.615723" fill="#1B1817"/>
</g>
<defs>
<clipPath id="clip0_30_102">
<rect width="50" height="50" fill="white"/>
</clipPath>
</defs>
</svg>
