<svg width="50" height="50" viewBox="0 0 50 50" fill="none" xmlns="http://www.w3.org/2000/svg">
<path d="M25 0C38.75 0 50 11.25 50 25C50 38.75 38.75 50 25 50C11.25 50 0 38.75 0 25C0 11.25 11.25 0 25 0ZM38.75 22.875C38.75 20.25 36.75 18 33.875 17.375C32.25 15.25 29 13.75 25.375 13.75C20.875 13.75 17.125 16 16 18.875C13.125 19.875 11.125 22.625 11.125 25.875C11.125 30 14.375 33.375 18.5 33.375C19.875 33.375 21.25 33 22.375 32.25L22.75 35.5C22.875 36.25 23.75 36.5 24.25 35.875L27.375 31.625C27.625 31.625 27.875 31.75 28.125 31.75C30.125 31.75 31.875 30.5 32.5 28.625C36 28.375 38.75 26 38.75 22.875Z" fill="#2F75C1"/>
</svg>
